<svg xmlns="http://www.w3.org/2000/svg" aria-hidden="true" style="position:absolute;width:0;height:0;overflow:hidden"><defs><symbol id="book-open" viewBox="0 0 32 32"><path stroke-linecap="round" stroke-linejoin="round" stroke-width="3" d="M29.334 8.266c0-1.492 0-2.24-.292-2.81a2.685 2.685 0 0 0-1.149-1.159l-.015-.007C27.306 4 26.56 4 25.066 4h-.532c-2.988 0-4.48 0-5.622.58a5.326 5.326 0 0 0-2.33 2.332C16 8.052 16 9.546 16 12.532V28l.134-.2c.926-1.39 1.388-2.084 2-2.586a5.326 5.326 0 0 1 1.838-.984c.756-.23 1.592-.23 3.26-.23h1.834c1.494 0 2.24 0 2.812-.29.5-.256.908-.664 1.164-1.166.292-.57.292-1.318.292-2.81V8.266zm-26.668 0c0-1.492 0-2.24.292-2.81.254-.5.662-.91 1.164-1.166C4.694 4 5.44 4 6.934 4h.532c2.988 0 4.48 0 5.62.58a5.33 5.33 0 0 1 2.332 2.332C16 8.052 16 9.546 16 12.532V28l-.134-.2c-.926-1.39-1.388-2.084-2-2.586a5.294 5.294 0 0 0-1.8-.974l-.038-.01C11.27 24 10.436 24 8.768 24H6.934c-1.494 0-2.24 0-2.812-.29a2.685 2.685 0 0 1-1.157-1.151l-.007-.015c-.292-.57-.292-1.318-.292-2.81V8.266z"/></symbol><symbol id="chevron-down" viewBox="0 0 32 32"><path stroke-linecap="round" stroke-linejoin="round" stroke-width="3.2" d="m8 12 8 8 8-8"/></symbol><symbol id="Green-circle" viewBox="0 0 32 32"><path fill="#fff" d="M32 16c0 8.837-7.163 16-16 16S0 24.837 0 16 7.163 0 16 0s16 7.163 16 16z" style="fill:var(--color1, #fff)"/><path fill="#38cd3e" d="M26.667 16c0 5.891-4.776 10.667-10.667 10.667S5.333 21.891 5.333 16 10.109 5.333 16 5.333 26.667 10.109 26.667 16z" style="fill:var(--color2, #38cd3e)"/></symbol><symbol id="log-in-01-f" viewBox="0 0 32 32"><path fill="none" stroke="#f4c550" stroke-linecap="round" stroke-linejoin="round" stroke-width="3.2" d="M20 4h1.6c2.24 0 3.36 0 4.216.435a4.027 4.027 0 0 1 1.737 1.726l.011.022c.437.856.437 1.976.437 4.216v11.2c0 2.24 0 3.36-.437 4.216a4.036 4.036 0 0 1-1.725 1.737l-.022.011c-.856.437-1.976.437-4.216.437h-1.6M13.333 9.333 20 16m0 0-6.667 6.667M20 16H4" style="stroke:var(--color3, #f4c550)"/></symbol><symbol id="star" viewBox="0 0 32 32"><path fill="#ffc531" stroke="#ffc531" stroke-width="2.4" d="M12.4 9.394 16 2.572l3.6 6.822c.318.604.9 1.024 1.57 1.14l7.6 1.316-5.376 5.532a2.192 2.192 0 0 0-.598 1.858l-.001-.012 1.1 7.636-6.924-3.404c-.283-.142-.617-.225-.97-.225s-.687.083-.983.231l.013-.006-6.924 3.404 1.1-7.636a2.191 2.191 0 0 0-.601-1.847h.001l-5.378-5.532 7.6-1.314a2.206 2.206 0 0 0 1.566-1.13l.006-.012z" style="fill:var(--color4, #ffc531);stroke:var(--color4, #ffc531)"/></symbol><symbol id="ukraine" viewBox="0 0 32 32"><path fill="#ffda44" d="M16 32c8.837 0 16-7.163 16-16S24.837 0 16 0 0 7.163 0 16s7.163 16 16 16z" style="fill:var(--color5, #ffda44)"/><path fill="#338af3" d="M0 16C0 7.163 7.163 0 16 0s16 7.163 16 16z" style="fill:var(--color6, #338af3)"/></symbol><symbol id="Vector" viewBox="0 0 38 32"><path stroke-linecap="round" stroke-linejoin="round" stroke-width="2.909" d="M32.839 4.355c-1.569-1.569-3.736-2.54-6.13-2.54s-4.562.971-6.13 2.54l-1.67 1.671-1.67-1.671A8.669 8.669 0 1 0 4.977 16.613l13.931 13.931 13.93-13.93c1.569-1.569 2.539-3.736 2.539-6.129s-.97-4.561-2.539-6.129z"/></symbol><symbol id="VerticalLine" viewBox="0 0 4 32"><path stroke-width="2" d="M2 0v32"/></symbol><symbol id="x" viewBox="0 0 32 32"><path stroke-linecap="round" stroke-linejoin="round" stroke-width="2.5" d="M24 8 8 24M8 8l16 16"/></symbol><symbol id="-mac" viewBox="0 0 26 32"><path d="M19.7.778c0 1.566-.56 3.029-1.679 4.382-1.349 1.609-2.98 2.539-4.749 2.392a4.727 4.727 0 0 1-.035-.592v-.002c0-1.503.642-3.113 1.781-4.428.569-.666 1.292-1.22 2.169-1.662.875-.436 1.703-.676 2.481-.717.02.188.032.406.032.626z"/><path d="M25.622 24.557a17.017 17.017 0 0 1-1.688 3.084l.037-.057c-.868 1.263-1.578 2.136-2.125 2.622-.849.796-1.758 1.204-2.732 1.227-.699 0-1.542-.203-2.523-.615-.985-.41-1.889-.613-2.717-.613-.867 0-1.798.203-2.794.613-.997.412-1.8.627-2.414.648-.934.04-1.864-.379-2.794-1.261-.593-.528-1.334-1.432-2.223-2.714-.953-1.369-1.737-2.956-2.351-4.765C.64 20.772.31 18.88.31 17.047c0-2.099.445-3.909 1.335-5.426.7-1.218 1.63-2.179 2.795-2.885a7.333 7.333 0 0 1 3.774-1.088h.005c.742 0 1.715.234 2.923.694 1.205.462 1.979.696 2.319.696.253 0 1.113-.274 2.57-.82 1.378-.506 2.541-.716 3.494-.633 2.582.213 4.522 1.252 5.812 3.123-2.309 1.428-3.451 3.427-3.428 5.992.021 1.999.731 3.661 2.128 4.982a6.989 6.989 0 0 0 2.08 1.405l.045.018c-.17.505-.35.988-.542 1.452z"/></symbol></defs></svg>